# xmcd
#
# Track frame offsets:
#	150
#	23340
#	44062
#	67870
#	95020
#	106570
#	125235
#	143385
#	166935
#	190743
#	218253
#	229718
#
# Disc length: 3386 seconds
#
# Revision: 1
# Processed by: cddbd v1.5.2PL0 Copyright (c) Steve Scherf et al.
# Submitted via: audiograbber 1.83.01
#
DISCID=900d380c
DTITLE=Projective Module - Other Things That Happened
DYEAR=2012
DGENRE=Electronic
TTITLE0=Anhelavi
TTITLE1=Balbuttio
TTITLE2=Flaminis
TTITLE3=Pipio
TTITLE4=Adflatus
TTITLE5=Aurae
TTITLE6=Circumvolo
TTITLE7=Anima
TTITLE8=Venti
TTITLE9=Sibilo
TTITLE10=Spiritus
TTITLE11=Angelificata
EXTD=
EXTT0=
EXTT1=
EXTT2=
EXTT3=
EXTT4=
EXTT5=
EXTT6=
EXTT7=
EXTT8=
EXTT9=
EXTT10=
EXTT11=
PLAYORDER=
